<svg width="59" height="52" viewBox="0 0 59 52" fill="none" xmlns="http://www.w3.org/2000/svg">
<path d="M48.0647 33.8826C47.7177 33.9976 47.3647 34.1086 46.9997 34.2156C46.1127 31.4671 45.0396 28.7822 43.7877 26.1796C44.9923 23.6111 46.0236 20.9648 46.8747 18.2586C47.5237 18.4466 48.1537 18.6446 48.7607 18.8586C54.6307 20.8796 58.2117 23.8676 58.2117 26.1696C58.2117 28.6216 54.3447 31.8056 48.0657 33.8866L48.0647 33.8826ZM45.4597 39.0456C46.0726 41.7942 46.1743 44.6321 45.7597 47.4176C45.3817 49.4546 44.6217 50.8116 43.6827 51.3556C41.6827 52.5126 37.4077 51.0086 32.7977 47.0416C32.269 46.5869 31.7357 46.1022 31.1977 45.5876C33.1201 43.4592 34.8964 41.2034 36.5147 38.8356C39.4057 38.5918 42.2765 38.1494 45.1067 37.5116C45.236 38.0336 45.3504 38.5452 45.4497 39.0466L45.4597 39.0456ZM19.1117 51.1586C17.1587 51.8486 15.6027 51.8676 14.6627 51.3256C12.6627 50.1716 11.8297 45.7166 12.9627 39.7406C13.096 39.0346 13.2504 38.3326 13.4257 37.6346C16.2441 38.2401 19.1003 38.6537 21.9747 38.8726C23.6404 41.232 25.4593 43.4796 27.4197 45.6006C27.0257 45.9812 26.6227 46.3522 26.2107 46.7136C24.1368 48.6186 21.7301 50.1257 19.1107 51.1596L19.1117 51.1586ZM9.96171 33.8706C7.27484 33.0256 4.7664 31.6934 2.56171 29.9406C0.989707 28.5896 0.199707 27.2516 0.199707 26.1656C0.199707 23.8556 3.64371 20.9096 9.38771 18.9066C10.1084 18.6566 10.836 18.4276 11.5707 18.2196C12.4236 20.9555 13.4565 23.632 14.6627 26.2316C13.4416 28.8684 12.396 31.5829 11.5327 34.3576C11.0034 34.2069 10.4797 34.0436 9.96171 33.8676V33.8706ZM13.0287 12.9886C11.8367 6.89556 12.6287 2.29956 14.6207 1.14656C16.7427 -0.0824382 21.4357 1.66956 26.3817 6.06156C26.6977 6.34256 27.0157 6.63656 27.3337 6.94056C25.388 9.04787 23.5841 11.2818 21.9337 13.6276C19.0866 13.8831 16.259 14.3226 13.4687 14.9436C13.3067 14.2956 13.1614 13.6439 13.0327 12.9886H13.0287ZM40.3917 19.7456C39.7717 18.6742 39.1287 17.6169 38.4627 16.5736C40.4867 16.8286 42.4257 17.1736 44.2467 17.5846C43.6623 19.4382 42.9848 21.2612 42.2167 23.0466C41.6307 21.9339 41.0224 20.8339 40.3917 19.7466V19.7456ZM29.2337 8.87656C30.5531 10.3151 31.7991 11.8193 32.9667 13.3836C30.4687 13.2656 27.9687 13.2656 25.4667 13.3836C26.6987 11.7586 27.9617 10.2486 29.2317 8.88356L29.2337 8.87656ZM17.9997 19.7636C17.3777 20.8429 16.7807 21.9362 16.2087 23.0436C15.4227 21.1726 14.7477 19.3326 14.1997 17.5586C16.0097 17.1536 17.9397 16.8226 19.9507 16.5716C19.2774 17.6216 18.629 18.6882 18.0057 19.7716L17.9997 19.7636ZM19.9997 35.9576C18.0362 35.7445 16.085 35.4307 14.1537 35.0176C14.7137 33.2086 15.4037 31.3296 16.2097 29.4176C16.7837 30.5256 17.3837 31.6196 18.0097 32.6996C18.6477 33.8009 19.3117 34.8869 20.0017 35.9576H19.9997ZM29.2997 43.6466C28.0157 42.2606 26.7347 40.7276 25.4827 39.0786C26.6974 39.1266 27.9344 39.1506 29.1937 39.1506C30.487 39.1506 31.7634 39.1222 33.0227 39.0656C31.8637 40.6553 30.6241 42.1846 29.3087 43.6476L29.2997 43.6466ZM42.2427 29.3206C43.0488 31.1424 43.7598 33.005 44.3727 34.9006C42.4189 35.3397 40.4436 35.6765 38.4547 35.9096C39.1254 34.8469 39.7747 33.7709 40.4027 32.6816C41.0407 31.5749 41.654 30.4546 42.2427 29.3206ZM38.0557 31.3276C37.095 32.9942 36.0807 34.6309 35.0127 36.2376C33.1307 36.3716 31.1857 36.4376 29.2037 36.4376C27.2217 36.4376 25.3097 36.3766 23.4607 36.2566C22.3654 34.6566 21.332 33.0172 20.3607 31.3386C19.394 29.6719 18.492 27.9682 17.6547 26.2276C18.4894 24.4896 19.3894 22.7849 20.3547 21.1136C21.3174 19.4429 22.3427 17.8096 23.4307 16.2136C25.3177 16.0706 27.2517 15.9966 29.2067 15.9966C31.1617 15.9966 33.1067 16.0716 34.9937 16.2156C36.0697 17.8056 37.0884 19.4322 38.0497 21.0956C39.011 22.7589 39.9227 24.4556 40.7847 26.1856C39.9374 27.9289 39.0287 29.6406 38.0587 31.3206L38.0557 31.3276ZM43.6457 1.06556C45.7697 2.29056 46.5957 7.23056 45.2617 13.7096C45.1744 14.1316 45.0794 14.5519 44.9767 14.9706C42.182 14.3372 39.3485 13.8895 36.4947 13.6306C34.8598 11.2819 33.0684 9.04618 31.1327 6.93856C31.608 6.48056 32.0944 6.03456 32.5917 5.60056C37.2747 1.52456 41.6517 -0.0844376 43.6467 1.06556H43.6457Z" fill="white"/>
</svg>
