<svg width="12" height="12" viewBox="0 0 12 12" fill="none" xmlns="http://www.w3.org/2000/svg">
<path d="M6.20382 0.501465C7.32425 0.501465 8.41952 0.833714 9.35113 1.45619C10.2827 2.07867 11.0088 2.96342 11.4376 3.99857C11.8664 5.03371 11.9786 6.17275 11.76 7.27165C11.5414 8.37055 11.0018 9.37996 10.2096 10.1722C9.41731 10.9645 8.40791 11.504 7.30901 11.7226C6.2101 11.9412 5.07106 11.829 4.03592 11.4002C3.00078 10.9715 2.11602 10.2454 1.49355 9.31377C0.871067 8.38216 0.538818 7.2869 0.538818 6.16647C0.538818 4.66401 1.13567 3.2231 2.19806 2.16071C3.26045 1.09831 4.70137 0.501465 6.20382 0.501465Z" fill="#8989A2"/>
</svg>
