<svg width="64" height="57" viewBox="0 0 64 57" fill="none" xmlns="http://www.w3.org/2000/svg">
<path d="M52.6428 18.2936C51.9675 18.0622 51.2868 17.8479 50.6008 17.6506C50.7148 17.1886 50.8202 16.7242 50.9168 16.2576C52.4628 8.75756 51.4518 2.70856 48.0008 0.718565C44.6918 -1.19044 39.2798 0.799564 33.8138 5.55656C33.2752 6.02323 32.7488 6.50623 32.2348 7.00557C31.8902 6.67223 31.5398 6.34857 31.1838 6.03456C25.4548 0.947565 19.7128 -1.19544 16.2648 0.800565C12.9588 2.71456 11.9798 8.40057 13.3708 15.5086C13.5095 16.2126 13.6658 16.9126 13.8398 17.6086C13.0278 17.8396 12.2398 18.0856 11.4918 18.3466C4.77582 20.6876 0.486816 24.3576 0.486816 28.1646C0.486816 32.0966 5.08682 36.0396 12.0868 38.4306C12.6541 38.6232 13.2258 38.8019 13.8018 38.9666C13.6145 39.7166 13.4478 40.4716 13.3018 41.2316C11.9748 48.2196 13.0108 53.7676 16.3088 55.6696C19.7148 57.6336 25.4308 55.6146 30.9968 50.7496C31.4368 50.3649 31.8781 49.9582 32.3208 49.5296C32.8775 50.0669 33.4492 50.5886 34.0358 51.0946C39.4268 55.7336 44.7518 57.6076 48.0468 55.7006C51.4468 53.7306 52.5548 47.7706 51.1188 40.5186C51.0095 39.9646 50.8828 39.3979 50.7388 38.8186C51.1388 38.6999 51.5322 38.5772 51.9188 38.4506C59.1908 36.0416 63.9188 32.1506 63.9188 28.1616C63.9188 24.3416 59.4918 20.6466 52.6398 18.2886L52.6428 18.2936Z" fill="#8989A2"/>
</svg>
